<?xml version="1.0" encoding="UTF-8"?>
<svg width="54px" height="46px" viewBox="0 0 54 46" version="1.1" xmlns="http://www.w3.org/2000/svg" xmlns:xlink="http://www.w3.org/1999/xlink">
    <title>Group 6 Copy</title>
    <g id="Page-1" stroke="none" stroke-width="1" fill="none" fill-rule="evenodd">
        <g id="T-Mobile_PP_desktop_login-Copy" transform="translate(-257.000000, -458.000000)" fill="#FFFFFF">
            <g id="Group-6-Copy" transform="translate(257.000000, 458.000000)">
                <path d="M9,41 L12,41 C13.1045695,41 14,40.1045695 14,39 L14,2 C14,0.8954305 13.1045695,-2.02906125e-16 12,0 L9,0 C7.8954305,2.02906125e-16 7,0.8954305 7,2 L7,39 C7,40.1045695 7.8954305,41 9,41 Z" id="Fill-3"></path>
                <path d="M21,40 L24,40 C25.1045695,40 26,39.1045695 26,38 L26,22 C26,20.8954305 25.1045695,20 24,20 L21,20 C19.8954305,20 19,20.8954305 19,22 L19,38 C19,39.1045695 19.8954305,40 21,40 Z" id="Fill-3"></path>
                <path d="M33,41 L36,41 C37.1045695,41 38,40.1045695 38,39 L38,8 C38,6.8954305 37.1045695,6 36,6 L33,6 C31.8954305,6 31,6.8954305 31,8 L31,39 C31,40.1045695 31.8954305,41 33,41 Z" id="Fill-3"></path>
                <path d="M45,41 L48,41 C49.1045695,41 50,40.1045695 50,39 L50,2 C50,0.8954305 49.1045695,-2.02906125e-16 48,0 L45,0 C43.8954305,2.02906125e-16 43,0.8954305 43,2 L43,39 C43,40.1045695 43.8954305,41 45,41 Z" id="Fill-3"></path>
                <polygon id="Fill-5" points="0 46 54 46 54 43 0 43"></polygon>
            </g>
        </g>
    </g>
</svg>