<?xml version="1.0" encoding="UTF-8"?>
<svg width="54px" height="43px" viewBox="0 0 54 43" version="1.1" xmlns="http://www.w3.org/2000/svg" xmlns:xlink="http://www.w3.org/1999/xlink">
    <title>Fill 1</title>
    <g id="Page-1" stroke="none" stroke-width="1" fill="none" fill-rule="evenodd">
        <g id="T-Mobile_PP_desktop_login-Copy" transform="translate(-254.000000, -606.000000)" fill="#FFFFFF">
            <g id="Group-3" transform="translate(254.000000, 606.000000)">
                <path d="M21.9174713,10.6916351 L32.4552655,12.9264678 L47.2866626,3.81339962 L48.4544357,5.71365215 L51.5483555,0 L45.0522782,0.178488005 L46.2200513,2.08009785 L32.0818497,10.7683239 L21.5440555,8.53349116 L1.92139409,20.5919508 L2.98732649,22.3293245 L21.9174713,10.6916351 Z M8.44870247,36.6633365 C4.47148461,36.6633365 2.03681352,35.3073706 2.03681352,34.5689867 C2.03681352,33.8299242 4.47148461,32.4759943 8.44870247,32.4759943 C12.4259203,32.4759943 14.8605914,33.8299242 14.8605914,34.5689867 C14.8605914,35.3073706 12.4259203,36.6633365 8.44870247,36.6633365 L8.44870247,36.6633365 Z M14.8605914,38.8689867 C14.8605914,39.6066919 12.4272782,40.9619792 8.44938141,40.9619792 C4.47284249,40.9619792 2.03817139,39.6066919 2.03817139,38.8689867 L2.03817139,37.3487847 C3.66694327,38.2398674 6.0663096,38.6993213 8.44938141,38.6993213 C10.8338111,38.6993213 13.2318196,38.2398674 14.8605914,37.3487847 L14.8605914,38.8689867 Z M8.44870247,30.4400095 C4.24947194,30.4400095 0,31.8584122 0,34.5689867 L0,34.5703441 L0,38.8689867 C0,41.5795612 4.25015088,42.997964 8.44870247,42.997964 C12.6472541,42.997964 16.8974049,41.5795612 16.8974049,38.8689867 L16.8974049,34.5703441 L16.8974049,34.5689867 C16.8974049,31.8584122 12.6472541,30.4400095 8.44870247,30.4400095 L8.44870247,30.4400095 Z M45.5519765,19.5115215 C41.5740797,19.5115215 39.1394086,18.1555556 39.1394086,17.4171717 C39.1394086,16.6787879 41.5740797,15.322822 45.5519765,15.322822 C49.5278365,15.322822 51.9625075,16.6787879 51.9625075,17.4171717 C51.9625075,18.1555556 49.5285154,19.5115215 45.5519765,19.5115215 L45.5519765,19.5115215 Z M51.9631865,21.7076705 C51.9631865,22.4460543 49.5285154,23.8020202 45.5526554,23.8020202 C41.5747586,23.8020202 39.1400875,22.4460543 39.1400875,21.7076705 L39.1400875,20.1956124 C40.7695383,21.0866951 43.1689046,21.5454703 45.5526554,21.5454703 C47.9364062,21.5454703 50.3344146,21.0866951 51.9631865,20.1969697 L51.9631865,21.7076705 Z M51.9631865,25.9981692 C51.9631865,26.736553 49.5285154,28.0925189 45.5526554,28.0925189 C41.5747586,28.0925189 39.1400875,26.736553 39.1400875,25.9981692 L39.1400875,24.4854324 C40.7695383,25.3765152 43.1689046,25.8359691 45.5526554,25.8359691 C47.9364062,25.8359691 50.3344146,25.3765152 51.9631865,24.4854324 L51.9631865,25.9981692 Z M51.9631865,30.2873106 C51.9631865,31.0256944 49.5285154,32.3816604 45.5526554,32.3816604 C41.5747586,32.3816604 39.1400875,31.0256944 39.1400875,30.2873106 L39.1400875,28.7766098 C40.7695383,29.6670139 43.1689046,30.1264678 45.5526554,30.1264678 C47.9364062,30.1264678 50.3344146,29.6670139 51.9631865,28.7772885 L51.9631865,30.2873106 Z M51.9631865,34.578488 C51.9631865,35.3168718 49.5285154,36.6728378 45.5526554,36.6728378 C41.5747586,36.6728378 39.1400875,35.3168718 39.1400875,34.578488 L39.1400875,33.0664299 C40.7695383,33.956834 43.1689046,34.4156092 45.5526554,34.4156092 C47.9364062,34.4156092 50.3344146,33.9561553 51.9631865,33.0664299 L51.9631865,34.578488 Z M51.9631865,38.8676294 C51.9631865,39.6066919 49.5285154,40.9619792 45.5526554,40.9619792 C41.5747586,40.9619792 39.1400875,39.6066919 39.1400875,38.8676294 L39.1400875,37.3569287 C40.7695383,38.2480114 43.1689046,38.7067866 45.5526554,38.7067866 C47.9364062,38.7067866 50.3344146,38.2480114 51.9631865,37.3576073 L51.9631865,38.8676294 Z M54,17.4171717 C54,14.7059186 49.7498491,13.2868371 45.5526554,13.2868371 C41.352067,13.2868371 37.103274,14.7059186 37.103274,17.4171717 L37.103274,38.8689867 C37.103274,41.5795612 41.3534249,43 45.5526554,43 C49.751207,43 54,41.5795612 54,38.8689867 L54,17.4171717 Z M27.0006789,28.0911616 C23.0227821,28.0911616 20.588111,26.736553 20.588111,25.9981692 C20.588111,25.2591067 23.0227821,23.9031408 27.0006789,23.9031408 C30.9785757,23.9031408 33.411889,25.2591067 33.411889,25.9981692 C33.411889,26.736553 30.9772179,28.0911616 27.0006789,28.0911616 L27.0006789,28.0911616 Z M33.411889,30.2873106 C33.411889,31.0256944 30.9785757,32.3816604 27.0006789,32.3816604 C23.0227821,32.3816604 20.588111,31.0256944 20.588111,30.2873106 L20.588111,28.7772885 C22.2182408,29.6676926 24.6169282,30.1264678 27.0006789,30.1264678 C29.3844297,30.1264678 31.7831171,29.6670139 33.411889,28.7772885 L33.411889,30.2873106 Z M33.411889,34.578488 C33.411889,35.3168718 30.9785757,36.6728378 27.0006789,36.6728378 C23.0227821,36.6728378 20.588111,35.3168718 20.588111,34.578488 L20.588111,33.0664299 C22.2182408,33.956834 24.6169282,34.4156092 27.0006789,34.4156092 C29.3844297,34.4156092 31.7831171,33.9561553 33.411889,33.0664299 L33.411889,34.578488 Z M33.411889,38.8676294 C33.411889,39.6066919 30.9785757,40.9619792 27.0006789,40.9619792 C23.0227821,40.9619792 20.588111,39.6066919 20.588111,38.8676294 L20.588111,37.3569287 C22.2182408,38.2480114 24.6169282,38.7067866 27.0006789,38.7067866 C29.3844297,38.7067866 31.7831171,38.2480114 33.411889,37.3569287 L33.411889,38.8676294 Z M27.0006789,21.8691919 C22.8136693,21.8691919 18.578455,23.2794508 18.5540133,25.976452 L18.5512975,25.976452 L18.5512975,38.8696654 C18.5512975,41.5795612 22.8028063,43 27.0006789,43 C31.1978727,43 35.4487025,41.5795612 35.4487025,38.8696654 L35.4487025,25.976452 L35.4473446,25.976452 C35.4222239,23.2794508 31.1870097,21.8691919 27.0006789,21.8691919 L27.0006789,21.8691919 Z" id="Fill-1"></path>
            </g>
        </g>
    </g>
</svg>