<?xml version="1.0" encoding="UTF-8"?>
<svg width="175px" height="42px" viewBox="0 0 175 42" version="1.1" xmlns="http://www.w3.org/2000/svg" xmlns:xlink="http://www.w3.org/1999/xlink">
    <title>LOGO</title>
    <g id="Page-1" stroke="none" stroke-width="1" fill="none" fill-rule="evenodd">
        <g id="T-Mobile_PP_desktop_login-Copy" transform="translate(-631.000000, -54.000000)" fill="#23158C" fill-rule="nonzero">
            <path d="M660.171875,95 L661.566406,88.3007812 L641.167969,88.3007812 L648.140625,54.9140625 L639.910156,54.9140625 L631.515625,95 L660.171875,95 Z M684.532969,95.7109375 C688.835052,95.7109375 692.690521,94.6445312 696.099375,92.5117188 C699.508229,90.3789062 702.206146,87.3346354 704.193125,83.3789062 C706.180104,79.4231771 707.173594,75.3307292 707.173594,71.1015625 C707.173594,66.015625 705.646901,61.9322917 702.593516,58.8515625 C699.54013,55.7708333 695.534271,54.2304688 690.575938,54.2304688 C686.875417,54.2304688 683.575938,54.9824219 680.6775,56.4863281 C677.779063,57.9902344 675.37737,60.0364583 673.472422,62.625 C671.567474,65.2135417 670.150156,68.2669271 669.220469,71.7851562 C668.509531,74.4101562 668.154063,76.9075521 668.154063,79.2773438 C668.154063,81.8294271 668.682708,84.358724 669.74,86.8652344 C670.797292,89.3717448 672.592865,91.4726562 675.126719,93.1679688 C677.660573,94.8632812 680.79599,95.7109375 684.532969,95.7109375 Z M685.435313,88.8203125 C682.700938,88.8203125 680.495208,87.890625 678.818125,86.03125 C677.141042,84.171875 676.3025,81.8658854 676.3025,79.1132812 C676.3025,74.6289062 677.56487,70.5091146 680.089609,66.7539062 C682.614349,62.9986979 685.891042,61.1210938 689.919688,61.1210938 C692.544688,61.1210938 694.704844,62.0188802 696.400156,63.8144531 C698.095469,65.610026 698.943125,68.0846354 698.943125,71.2382812 C698.943125,74.0638021 698.273203,76.9667969 696.933359,79.9472656 C695.593516,82.9277344 693.898203,85.1516927 691.847422,86.6191406 C689.796641,88.0865885 687.659271,88.8203125 685.435313,88.8203125 Z M728.63625,95.6835938 C731.826354,95.6835938 734.957214,95.2096354 738.028828,94.2617188 C741.100443,93.3138021 743.693542,92.15625 745.808125,90.7890625 L745.808125,90.7890625 L749.4175,73.5898438 L731.48,73.5898438 L730.085469,80.2890625 L740.312031,80.2890625 L739.081563,86.25 C737.732604,86.9427083 736.128438,87.5397135 734.269063,88.0410156 C732.409688,88.5423177 730.595885,88.7929688 728.827656,88.7929688 C725.874531,88.7929688 723.632344,87.9863281 722.101094,86.3730469 C720.569844,84.7597656 719.804219,82.2669271 719.804219,78.8945312 C719.804219,75.4674479 720.433125,72.3046875 721.690938,69.40625 C722.94875,66.5078125 724.689635,64.3658854 726.913594,62.9804688 C729.137552,61.5950521 731.58026,60.9023438 734.241719,60.9023438 C736.520365,60.9023438 738.411641,61.4765625 739.915547,62.625 C741.419453,63.7734375 742.508646,65.4778646 743.183125,67.7382812 L743.183125,67.7382812 L750.866719,66.8632812 C749.95526,62.7434896 748.100443,59.6080729 745.302266,57.4570312 C742.504089,55.3059896 738.789896,54.2304688 734.159688,54.2304688 C729.529479,54.2304688 725.500833,55.4153646 722.07375,57.7851562 C718.646667,60.1549479 716.003438,63.4908854 714.144063,67.7929688 C712.594583,71.3658854 711.819844,75.1028646 711.819844,79.0039062 C711.819844,84.8190104 713.624531,89.2578125 717.233906,92.3203125 C719.877135,94.5625 723.677917,95.6835938 728.63625,95.6835938 Z M771.755156,95.7109375 C776.05724,95.7109375 779.912708,94.6445312 783.321563,92.5117188 C786.730417,90.3789062 789.428333,87.3346354 791.415313,83.3789062 C793.402292,79.4231771 794.395781,75.3307292 794.395781,71.1015625 C794.395781,66.015625 792.869089,61.9322917 789.815703,58.8515625 C786.762318,55.7708333 782.756458,54.2304688 777.798125,54.2304688 C774.097604,54.2304688 770.798125,54.9824219 767.899688,56.4863281 C765.00125,57.9902344 762.599557,60.0364583 760.694609,62.625 C758.789661,65.2135417 757.372344,68.2669271 756.442656,71.7851562 C755.731719,74.4101562 755.37625,76.9075521 755.37625,79.2773438 C755.37625,81.8294271 755.904896,84.358724 756.962188,86.8652344 C758.019479,89.3717448 759.815052,91.4726562 762.348906,93.1679688 C764.88276,94.8632812 768.018177,95.7109375 771.755156,95.7109375 Z M772.6575,88.8203125 C769.923125,88.8203125 767.717396,87.890625 766.040313,86.03125 C764.363229,84.171875 763.524688,81.8658854 763.524688,79.1132812 C763.524688,74.6289062 764.787057,70.5091146 767.311797,66.7539062 C769.836536,62.9986979 773.113229,61.1210938 777.141875,61.1210938 C779.766875,61.1210938 781.927031,62.0188802 783.622344,63.8144531 C785.317656,65.610026 786.165313,68.0846354 786.165313,71.2382812 C786.165313,74.0638021 785.495391,76.9667969 784.155547,79.9472656 C782.815703,82.9277344 781.120391,85.1516927 779.069609,86.6191406 C777.018828,88.0865885 774.881458,88.8203125 772.6575,88.8203125 Z M804.319375,95 L805.905313,87.4257812 L798.139688,87.4257812 L796.55375,95 L804.319375,95 Z" id="LOGO."></path>
        </g>
    </g>
</svg>